<?xml version="1.0" encoding="UTF-8"?>
<svg id="svg5332" xmlns="http://www.w3.org/2000/svg" viewBox="0 0 204.8 107.56">
  <defs>
    <style>
      .cls-1 {
        fill: #fff;
      }
    </style>
  </defs>
  <g id="layer1">
    <path id="path10000" class="cls-1" d="M82.63,0C67.53,0,52.51,6.22,41.83,16.9c-6.73,6.73-11.68,15.18-14.43,24.29-6.6,1.25-12.84,4.47-17.59,9.22C3.61,56.61,0,65.32,0,74.08s3.61,17.48,9.81,23.67c6.2,6.2,14.91,9.81,23.67,9.81H183.43c5.59,0,11.16-2.3,15.11-6.26,3.96-3.96,6.26-9.52,6.26-15.11s-2.3-11.15-6.26-15.11c-3.93-3.93-9.45-6.23-15.01-6.26-1.08-10.14-5.68-19.89-12.89-27.11-8.31-8.31-19.98-13.15-31.73-13.15-2.85,0-5.7,.29-8.5,.84-2.05-3.05-4.38-5.92-6.98-8.52C112.75,6.22,97.74,0,82.63,0h0Z"/>
  </g>
</svg>