<?xml version="1.0" encoding="utf-8"?>
<!-- Generator: Adobe Illustrator 26.4.1, SVG Export Plug-In . SVG Version: 6.00 Build 0)  -->
<svg version="1.1" xmlns="http://www.w3.org/2000/svg" xmlns:xlink="http://www.w3.org/1999/xlink" x="0px" y="0px"
	 viewBox="0 0 800 800" style="enable-background:new 0 0 800 800;" xml:space="preserve">
<g id="Capa_1">
	<g>
		<path d="M799,396.4c-25.6-65-68.5-121.3-123.9-162.9c-55.8-41.8-121.6-66.5-190.5-71.4L342.4,90.3c-0.3-0.1-0.6-0.3-0.9-0.4
			c-6.4-2.7-13-4.1-19.5-4.1c-26.4,0-46.2,22.2-46.2,51.6c0,19,8.7,35.3,18.7,54.1c1.3,2.4,2.5,4.8,3.8,7.2
			c-59.4,29.6-110.9,75.9-147.2,132.6L54,271.7c-0.6-0.4-1.3-0.7-1.9-1c-5-2.2-10.2-3.2-15.4-3.2C15.8,267.5,0,284.9,0,308
			c0,26.9,30.1,73,44.8,93.9C30.1,422.7,0,468.8,0,495.7c0,23.1,15.8,40.5,36.7,40.5c5.2,0,10.3-1.1,15.4-3.3c0.7-0.3,1.3-0.6,1.9-1
			l97.1-59.5c36.2,56.7,86,101.8,145.3,131.6c-1,1.9-1.9,3.8-2.9,5.7c-9.5,18.5-17.8,34.5-17.8,52.9c0,29.4,19.9,51.6,46.2,51.6
			c0,0,0,0,0,0c6.5,0,13.1-1.4,19.5-4.1c0.3-0.1,0.6-0.3,0.9-0.4L475,642.2c143.3-6.5,270.2-98.4,324-234.9
			C800.3,403.8,800.3,399.9,799,396.4z M322,684.7"/>
	</g>
</g>
<g id="Layer_2">
</g>
</svg>
